<svg width="71" height="34" viewBox="0 0 71 34" fill="none" xmlns="http://www.w3.org/2000/svg">
<g clip-path="url(#clip0_262_3789)">
<path fill-rule="evenodd" clip-rule="evenodd" d="M65.4771 31.8229L65.5023 31.7978V32.6778C65.1753 32.9796 64.9993 33.0802 64.6976 33.0802C64.3456 33.0802 64.0941 32.9545 64.0941 32.5521C64.0941 31.9487 64.7479 31.7978 65.0999 31.7978C65.1502 31.7978 65.3514 31.8229 65.4771 31.8229ZM28.6148 31.8229C28.6399 31.8481 28.6651 31.8481 28.6902 31.7978V32.6527C28.4136 32.9796 28.1119 33.0802 27.8604 33.0802C27.5335 33.0802 27.2821 32.9796 27.2821 32.5773C27.2821 31.9738 27.8856 31.7978 28.2627 31.7978C28.313 31.7978 28.489 31.7978 28.6148 31.8229H28.6148ZM25.3962 32.0492C25.3962 32.879 24.7676 32.9796 24.2144 32.9796C24.1641 32.9796 23.9127 32.9796 23.787 32.9545V31.1691C23.9378 31.1943 24.1893 31.1691 24.2647 31.1691C24.8933 31.1691 25.3962 31.2949 25.3962 32.0492L25.3962 32.0492ZM19.5375 30.8674V32.7784C19.3614 32.9796 19.0597 33.055 18.9088 33.055C18.0539 33.055 17.8276 32.4515 17.8276 31.8229C17.8276 31.2446 18.1293 30.5405 18.8837 30.5405C19.0849 30.5405 19.3614 30.5908 19.5375 30.8674ZM15.464 30.5657C15.6651 30.5908 16.0675 31.0183 16.0675 31.2446V31.3703H14.2067V31.2949C14.3576 30.7668 14.7096 30.5405 15.1623 30.5405C15.2125 30.5405 15.3634 30.5405 15.464 30.5657V30.5657ZM43.9782 31.7726C43.9782 32.2755 43.8273 33.055 43.0479 33.055C42.2432 33.055 42.1678 32.2504 42.1678 31.7978C42.1678 31.3452 42.2935 30.5154 43.073 30.5154C43.8525 30.5154 43.9782 31.2949 43.9782 31.7726ZM59.3669 30.0628V33.5328H58.7634V30.5657H58.2856V30.0628H59.3669H59.3669ZM10.1334 30.0628V33.5328H9.50477V30.5657H9.02701V30.0628H10.1334H10.1334ZM51.6978 32.0241H50.3651L51.0692 30.0376L51.6978 32.0241ZM65.6029 30.1634C65.9298 30.2891 66.1561 30.9177 66.1561 31.1943V32.8287C66.1813 32.9796 66.2315 33.1556 66.4327 33.2813V33.5831H66.1309C65.9298 33.5328 65.6281 33.3567 65.5778 33.1556C65.4017 33.4574 64.748 33.6082 64.4714 33.6082C63.8428 33.6082 63.4656 33.0802 63.4656 32.5521C63.4656 31.6218 64.4714 31.2949 65.0749 31.2949C65.1252 31.2949 65.3515 31.3452 65.5023 31.3703C65.5275 31.3452 65.5275 31.2949 65.5275 31.2446C65.5275 30.6914 65.1 30.5405 64.748 30.5405C64.4965 30.5405 64.1194 30.616 63.9182 30.8423C63.8176 30.6914 63.6416 30.4148 63.6416 30.3394C63.6416 30.2891 63.8679 30.1634 63.9685 30.1382C64.0691 30.0879 64.2199 30.0376 64.396 30.0125C64.4714 29.9873 64.6726 29.9873 64.7228 29.9873C64.9994 29.9873 65.3515 30.0628 65.6029 30.1634V30.1634ZM62.9627 30.3394C62.8872 30.4651 62.7867 30.616 62.6861 30.7669C62.3341 30.5657 62.1581 30.5154 61.8563 30.5154C60.9763 30.5154 60.7751 31.2697 60.7751 31.8229C60.7751 32.5521 61.1271 33.0802 61.8815 33.0802C62.1329 33.0802 62.5101 32.9293 62.7364 32.7533L62.9878 33.2562C62.7867 33.4322 62.0826 33.6082 61.7557 33.6082C61.102 33.6082 60.3728 33.2059 60.1465 32.2755C60.1465 32.2252 60.1213 32.1247 60.1213 32.0744V31.5966C60.2219 30.4148 61.0768 29.9873 61.8815 29.9873C62.2083 29.9873 62.6609 30.1382 62.9627 30.3394V30.3394ZM58.0092 30.0376L57.7829 30.6411C57.6571 30.5908 57.4057 30.5154 57.3554 30.5154C56.9531 30.5154 56.5507 30.968 56.5507 31.32V33.5328H55.9221V30.0628H56.5507C56.5507 30.2137 56.5507 30.3897 56.5759 30.5405C56.7771 30.1131 57.2297 29.9873 57.5314 29.9873C57.6068 29.9873 57.8583 30.0125 58.0091 30.0376H58.0092ZM47.4231 30.0879C47.3477 30.2891 47.2723 30.4651 47.1969 30.6411C47.0711 30.5908 46.8197 30.5154 46.7694 30.5154C46.3671 30.5154 45.9648 30.968 45.9648 31.32V33.5328H45.3361V30.0628H45.9648C45.9648 30.2137 45.9648 30.3897 45.9899 30.5405C46.1911 30.1131 46.6437 29.9873 46.9454 29.9873C47.0963 29.9873 47.4231 30.0879 47.4231 30.0879H47.4231ZM44.6321 31.7726C44.6321 32.6527 44.2549 33.6082 43.0731 33.6082C41.9164 33.6082 41.489 32.6527 41.489 31.7726C41.489 30.8423 42.017 29.9873 43.0731 29.9873C44.2801 29.9873 44.6321 30.9177 44.6321 31.7726ZM32.2106 30.0125C32.638 30.0125 33.0403 30.6411 33.0403 31.0183V33.5328H32.4369V31.2446C32.4117 30.7165 32.11 30.5154 31.7328 30.5154C31.6574 30.5154 31.6071 30.4902 31.5819 30.5154C31.4311 30.5405 30.903 30.7669 30.903 30.968V33.5328H30.2996V30.0628H30.727C30.7773 30.1885 30.8527 30.3394 30.903 30.4651C31.1545 30.1131 31.5568 29.9873 31.9088 29.9873C31.9591 29.9873 32.11 30.0125 32.2106 30.0125H32.2106ZM29.1932 30.6663C29.2183 30.792 29.3189 30.9932 29.3189 31.0686V32.703C29.3692 32.8539 29.344 33.1305 29.5955 33.2813V33.5831H29.3189C29.1429 33.5579 28.816 33.4071 28.7657 33.1556C28.6148 33.4574 27.8856 33.6082 27.6342 33.6082C27.0307 33.6082 26.6284 33.0802 26.6284 32.5521C26.6284 31.6218 27.6342 31.2949 28.2377 31.2949C28.288 31.2949 28.5394 31.3452 28.6903 31.3703C28.7154 31.3452 28.7154 31.3452 28.7154 31.2697C28.7154 30.7669 28.3634 30.5405 27.9359 30.5405C27.6342 30.5405 27.3828 30.5908 27.1061 30.8423C26.9804 30.7669 26.8547 30.4651 26.8044 30.3394C27.0559 30.1382 27.5588 29.9874 27.9108 29.9874C28.2628 29.9874 29.0172 30.0879 29.1932 30.6663L29.1932 30.6663ZM16.6962 31.4709C16.6962 31.5212 16.6962 31.7223 16.671 31.8481H14.1565V32.0492C14.2068 32.7533 14.7349 33.0802 15.2629 33.0802C15.5395 33.0802 15.7909 33.0047 16.1178 32.7784C16.2184 32.9041 16.2939 33.055 16.3944 33.2059C16.2184 33.4322 15.4389 33.6082 15.1372 33.6082C14.0308 33.6082 13.5028 32.703 13.5028 31.8229C13.5028 30.8926 14.0811 29.9873 15.1372 29.9873C16.0676 29.9873 16.6962 30.5154 16.6962 31.4709V31.4709ZM7.74462 30.0879C7.82006 30.1131 8.02121 30.3143 8.09664 30.4148C8.1218 30.4148 8.32296 30.9177 8.32296 31.0183V33.5328H7.71947V31.2446C7.61892 30.6663 7.41772 30.5154 7.01543 30.5154C6.73883 30.5154 6.46224 30.616 6.18565 30.968V33.5328H5.58218V30.0628H6.00963C6.0599 30.1885 6.13534 30.3394 6.18565 30.4651C6.43708 30.1131 6.83941 29.9874 7.19143 29.9874C7.24174 29.9874 7.5686 30.0125 7.74462 30.0879L7.74462 30.0879ZM25.1448 29.9371C25.1448 30.5908 24.5917 30.6663 24.1642 30.6663H23.787V29.3085H24.1893C24.5665 29.3085 25.1448 29.3085 25.1448 29.9371ZM11.9438 30.0628H12.8993V30.5405H11.9438V32.5019C12.0695 32.9545 12.2455 33.0802 12.5473 33.0802C12.6227 33.0802 12.8993 33.0047 13.0502 32.9545C13.0753 33.1305 13.1256 33.3316 13.1508 33.5076C12.8742 33.5579 12.3713 33.6082 12.2959 33.6082C11.7678 33.6082 11.3152 33.1053 11.3152 32.6276V30.5405H10.9129V30.0628H11.3152V29.3336C11.5164 29.2582 11.7427 29.1576 11.9438 29.1073V30.0628L11.9438 30.0628ZM1.96131 28.7804V31.9989C2.06187 32.7533 2.46419 33.0299 2.96708 33.0299C3.39457 33.0299 3.79687 32.8287 3.99804 32.2504V28.7804H4.6518V32.3258C4.50092 33.3819 3.62087 33.6082 2.96708 33.6082C2.43905 33.6082 1.73501 33.4574 1.43327 32.7784C1.38295 32.6276 1.33268 32.3761 1.33268 32.3258V28.7804H1.9613H1.96131ZM59.4675 29.1073C59.4675 29.3587 59.3166 29.5096 59.0903 29.5096C58.8388 29.5096 58.7131 29.2833 58.7131 29.1324C58.7131 28.881 58.8388 28.7552 59.0903 28.7552C59.3166 28.7552 59.4675 28.881 59.4675 29.1073ZM10.234 29.1073C10.234 29.3587 10.0077 29.5096 9.83167 29.5096C9.58024 29.5096 9.4545 29.2833 9.4545 29.1324C9.4545 28.881 9.65567 28.7552 9.83167 28.7552C10.058 28.7552 10.234 28.881 10.234 29.1073ZM25.8238 29.8868C25.8238 30.2388 25.6478 30.5908 25.1449 30.8423L25.1198 30.8926C25.849 31.0434 26.1255 31.5966 26.1255 32.1498C26.1255 32.2001 26.0753 32.4264 26.0501 32.5521C25.9747 33.1053 25.0946 33.5328 24.6672 33.5328H23.1082V28.7301H24.29C24.9689 28.7301 25.8238 28.9313 25.8238 29.8868L25.8238 29.8868ZM51.1698 28.705L52.9802 33.5328H52.251C52.1505 33.2059 52.0247 32.8539 51.899 32.527H50.1892C50.0383 32.8539 49.9125 33.2059 49.812 33.5328H49.0828C49.7114 31.9235 50.3652 30.3142 50.9938 28.705H51.1698H51.1698ZM55.4696 28.7301C55.4444 28.7804 55.2936 29.1827 55.2684 29.1827C55.193 29.1827 55.017 29.1324 54.9415 29.1324C54.4889 29.1324 54.2878 29.5347 54.2878 29.8868C54.2878 29.9371 54.3129 29.9873 54.3129 30.0628H55.017V30.5657H54.3129V33.5328H53.7094V30.5657H53.2065V30.0628H53.7094C53.6843 29.233 54.1118 28.6295 54.8912 28.6295C54.9415 28.6295 55.2684 28.6798 55.4696 28.7301ZM41.313 28.7301L41.1621 29.1827C41.0616 29.1576 40.8855 29.1324 40.8101 29.1324C40.5335 29.1324 40.1564 29.409 40.1564 29.7108V30.0628H40.8855V30.5657H40.1564V33.5328H39.5529V30.5657H39.05V30.0628H39.5529C39.5529 29.2079 39.9803 28.6295 40.7347 28.6295C40.8101 28.6295 41.137 28.6798 41.313 28.7301L41.313 28.7301ZM34.5491 28.6295V31.6218L35.8566 30.0628H36.5858L35.5045 31.3703L36.8372 33.5328H36.1583L35.0771 31.7978C34.9262 31.9738 34.7251 32.1749 34.5491 32.351V33.5328H33.9204V28.6295H34.5491V28.6295ZM20.1662 28.6295V33.5328H19.5627C19.5627 33.4574 19.5627 33.3819 19.5376 33.3065C19.2358 33.5328 18.9341 33.5831 18.6324 33.5831C17.526 33.5831 17.1488 32.6527 17.1488 31.8732C17.1488 31.0937 17.6768 29.9874 18.7581 29.9874C18.9341 29.9874 19.3616 30.0628 19.5627 30.2137V28.6295H20.1662V28.6295ZM23.3093 16.7612C24.7928 17.088 25.4466 17.9178 25.4466 19.0745C25.4466 19.1248 25.4215 19.6025 25.346 19.8539C25.2706 20.1054 25.1323 20.3275 24.8934 20.6335C24.1506 21.5848 22.731 22.3433 21.8509 22.3433H19.3364C19.7387 20.5077 20.0907 18.6219 20.4931 16.8115C20.4931 16.7612 20.5182 16.7361 20.5685 16.7109L22.4795 16.6606C22.5298 16.6606 23.0327 16.7109 23.3093 16.7612L23.3093 16.7612ZM39.9803 18.8733H35.4291L38.7482 13.7941L39.9803 18.8733ZM25.8741 12.2602C25.8741 12.3105 25.7735 12.7883 25.7483 13.0398C25.6981 13.5678 25.2203 14.3473 24.5163 14.7747C24.2648 14.9256 23.2339 15.5291 23.083 15.5291H20.8451C20.9205 15.1268 20.996 14.6993 21.0714 14.297C21.1217 14.0455 21.1971 13.7689 21.2223 13.5175C21.2726 13.2661 21.348 12.9894 21.3731 12.738C21.4235 12.4866 21.4989 12.21 21.524 11.9585C21.5743 11.7071 21.5952 11.5688 21.6497 11.179C21.7042 10.7306 21.6707 10.7138 21.9263 10.7264L23.8122 10.6761C24.6168 10.6761 25.8741 11.1036 25.8741 12.2603V12.2602ZM40.8101 8.68968L44.5818 24.204H41.1873L40.5838 21.1615H34.021L32.0094 24.204H29.1932L39.7037 8.68968H40.8101H40.8101ZM25.7986 8.68968C28.0617 8.94114 29.1178 9.99722 29.1178 11.7574C29.1178 13.6432 27.8102 15.0513 25.522 15.8057C25.5472 15.8308 25.5975 15.8308 25.6226 15.8308C27.3073 16.0823 28.5143 17.0629 28.5143 18.5967C28.5143 21.0358 27.0056 23.2988 23.7367 24.028C23.5859 24.0532 22.5801 24.2543 22.2281 24.2543H15.8161L19.0598 8.68966H25.7986L25.7986 8.68968ZM5.35584 8.68968C5.10439 10.0224 4.8278 11.2796 4.57633 12.5368C4.3752 13.4672 4.17402 14.4479 3.99802 15.4034C3.74657 16.8115 3.34424 18.1693 3.34424 19.5774C3.34424 21.1112 3.84716 22.4942 5.83358 22.4942C7.7446 22.4942 9.63047 21.2369 10.2339 18.6722C11.0134 15.3531 11.6672 12.0088 12.3713 8.68967H15.2378V8.7651C14.4331 12.4111 13.6788 16.0571 12.849 19.678C12.409 20.8221 12.2141 21.0043 11.8683 21.4633C10.3596 23.5503 8.34809 24.2292 6.61309 24.4304C6.41196 24.4555 6.0599 24.5058 5.98447 24.5058H4.45065C4.14891 24.4806 3.82202 24.4304 3.54544 24.38C3.26883 24.3298 2.96708 24.2543 2.6905 24.1789C0.754348 23.7011 0 21.8404 0 20.4575V19.854C0.0251373 19.678 0.0251373 19.4768 0.0502936 19.2757C0.779485 15.7554 1.5087 12.21 2.23789 8.6897H5.35586L5.35584 8.68968ZM57.481 24.1035C57.0786 24.1537 56.2992 24.2543 56.2237 24.2543H49.9627L54.187 4.41504C56.3997 8.73997 58.6125 13.1152 60.8001 17.4903C61.1773 18.4458 61.5293 19.4768 61.5293 20.4574C61.5293 22.645 59.9955 23.7011 57.481 24.1034L57.481 24.1035ZM66.4828 20.2311C65.2005 17.7418 63.9181 15.2273 62.6608 12.738C61.9568 11.355 61.2527 9.92179 60.5487 8.56397C60.3223 8.08621 60.0709 7.65876 59.8697 7.20614C59.6434 6.70325 59.1405 5.16942 59.1405 4.44022V3.91216C59.1657 3.66071 59.1908 3.35897 59.2662 3.13268C60.0206 0.743927 62.8117 0.517612 64.4712 0.39187L70.7323 0.391846L66.4828 20.2311Z" fill="url(#paint0_linear_262_3789)"/>
</g>
<defs>
<linearGradient id="paint0_linear_262_3789" x1="35.3662" y1="0.391846" x2="35.3662" y2="33.6082" gradientUnits="userSpaceOnUse">
<stop stop-color="#ED1500"/>
<stop offset="1" stop-color="#D70900"/>
</linearGradient>
<clipPath id="clip0_262_3789">
<rect width="71" height="33.2164" fill="white" transform="translate(0 0.391846)"/>
</clipPath>
</defs>
</svg>
