<svg width="12" height="13" viewBox="0 0 12 13" fill="none" xmlns="http://www.w3.org/2000/svg">
<path fill-rule="evenodd" clip-rule="evenodd" d="M1.24945 1.98727C2.0311 1.73703 2.81854 1.50527 3.61112 1.2922C4.53585 1.04867 5.38519 0.866667 5.82719 0.866667C6.26919 0.866667 7.11939 1.04867 8.04326 1.2922C8.94719 1.5314 9.86239 1.81393 10.4049 1.98727C10.4757 2.0091 10.5388 2.05045 10.5871 2.10656C10.6354 2.16267 10.6669 2.23127 10.6779 2.30447C11.1399 5.68187 10.0739 8.14667 8.80245 9.76993C8.26179 10.4662 7.61999 11.0776 6.89839 11.5839C6.61065 11.7815 6.35499 11.9253 6.15565 12.0172C6.05512 12.0631 5.97365 12.0943 5.91125 12.1134C5.862 12.1284 5.83526 12.1322 5.82794 12.1332L5.82719 12.1333C5.79872 12.1283 5.77064 12.1214 5.74312 12.1125C5.68072 12.0943 5.59925 12.0631 5.49872 12.0172C5.29852 11.9253 5.04459 11.7815 4.75599 11.5839C4.18052 11.1878 3.48979 10.5846 2.85192 9.76993C1.58052 8.14667 0.514522 5.68187 0.976455 2.30447C0.987511 2.23127 1.01899 2.16267 1.06729 2.10656C1.11558 2.05045 1.17872 2.0091 1.24945 1.98727ZM5.82719 0C5.25259 0 4.29319 0.2158 3.38925 0.455C2.583 0.671478 1.78198 0.906988 0.986855 1.16133C0.759848 1.23283 0.55773 1.36715 0.403893 1.54875C0.250056 1.73034 0.150791 1.95179 0.117589 2.18747C-0.379011 5.82487 0.771922 8.5202 2.16985 10.3038C2.76458 11.0692 3.47067 11.7411 4.26459 12.2971C4.54068 12.4907 4.83263 12.6606 5.13732 12.805C5.37132 12.9125 5.62092 13 5.82719 13C6.03345 13 6.28305 12.9125 6.51705 12.805C6.82168 12.6605 7.11362 12.4906 7.38979 12.2971C8.18402 11.7412 8.89041 11.0692 9.48539 10.3038C10.8816 8.5202 12.0334 5.82487 11.5368 2.18747C11.4701 1.70127 11.1251 1.30693 10.6675 1.16133C9.8724 0.906982 9.07138 0.671471 8.26512 0.455C7.36119 0.2158 6.40092 0 5.82719 0ZM6.88809 5.95091C7.04331 5.73128 7.12659 5.4689 7.12645 5.19995C7.12633 4.96165 7.0607 4.72797 6.93675 4.52444C6.81279 4.32091 6.63528 4.15537 6.42361 4.0459C6.21194 3.93644 5.97424 3.88726 5.73651 3.90375C5.49878 3.92024 5.27015 4.00175 5.07562 4.13939C4.88108 4.27702 4.72812 4.46548 4.63344 4.68417C4.53877 4.90286 4.50603 5.14337 4.5388 5.37941C4.57157 5.61544 4.66859 5.83793 4.81926 6.02256C4.96993 6.20719 5.16844 6.34685 5.39312 6.42629L5.06032 8.15095C5.04819 8.21361 5.05006 8.27817 5.06577 8.34003C5.08149 8.40188 5.11068 8.4595 5.15125 8.50876C5.19182 8.55803 5.24278 8.59772 5.30047 8.62501C5.35816 8.6523 5.42116 8.66651 5.48498 8.66662H6.16792C6.23181 8.66663 6.29492 8.65252 6.35271 8.62529C6.41051 8.59805 6.46157 8.55838 6.50224 8.5091C6.5429 8.45982 6.57217 8.40215 6.58794 8.34024C6.60371 8.27832 6.60559 8.21368 6.59345 8.15095L6.25978 6.42629C6.51335 6.33664 6.73287 6.17055 6.88809 5.95091Z" fill="#B42318"/>
</svg>
