<svg width="22" height="14" viewBox="0 0 22 14" fill="none" xmlns="http://www.w3.org/2000/svg">
<path fill-rule="evenodd" clip-rule="evenodd" d="M0.998657 7C0.998657 6.80109 1.07767 6.61032 1.21833 6.46967C1.35898 6.32902 1.54974 6.25 1.74866 6.25H19.4382L14.7177 1.531C14.5768 1.39017 14.4977 1.19916 14.4977 1C14.4977 0.800838 14.5768 0.609831 14.7177 0.469001C14.8585 0.328171 15.0495 0.249054 15.2487 0.249054C15.4478 0.249054 15.6388 0.328171 15.7797 0.469001L21.7797 6.469C21.8495 6.53867 21.9049 6.62143 21.9427 6.71255C21.9805 6.80367 22 6.90135 22 7C22 7.09865 21.9805 7.19633 21.9427 7.28745C21.9049 7.37857 21.8495 7.46133 21.7797 7.531L15.7797 13.531C15.6388 13.6718 15.4478 13.7509 15.2487 13.7509C15.0495 13.7509 14.8585 13.6718 14.7177 13.531C14.5768 13.3902 14.4977 13.1992 14.4977 13C14.4977 12.8008 14.5768 12.6098 14.7177 12.469L19.4382 7.75H1.74866C1.54974 7.75 1.35898 7.67098 1.21833 7.53033C1.07767 7.38968 0.998657 7.19891 0.998657 7Z" fill="#DC3545"/>
</svg>
