<svg width="14" height="13" viewBox="0 0 14 13" fill="none" xmlns="http://www.w3.org/2000/svg">
<g clip-path="url(#clip0_3025_1999)">
<path fill-rule="evenodd" clip-rule="evenodd" d="M7 0.8125C8.50842 0.8125 9.95506 1.41172 11.0217 2.47833C12.0883 3.54494 12.6875 4.99158 12.6875 6.5C12.6875 8.00842 12.0883 9.45506 11.0217 10.5217C9.95506 11.5883 8.50842 12.1875 7 12.1875C5.49158 12.1875 4.04494 11.5883 2.97833 10.5217C1.91172 9.45506 1.3125 8.00842 1.3125 6.5C1.3125 4.99158 1.91172 3.54494 2.97833 2.47833C4.04494 1.41172 5.49158 0.8125 7 0.8125ZM7 0C8.72391 0 10.3772 0.684819 11.5962 1.90381C12.8152 3.12279 13.5 4.77609 13.5 6.5C13.5 8.22391 12.8152 9.87721 11.5962 11.0962C10.3772 12.3152 8.72391 13 7 13C5.27609 13 3.62279 12.3152 2.40381 11.0962C1.18482 9.87721 0.5 8.22391 0.5 6.5C0.5 4.77609 1.18482 3.12279 2.40381 1.90381C3.62279 0.684819 5.27609 0 7 0Z" fill="#984C0C"/>
<path fill-rule="evenodd" clip-rule="evenodd" d="M7.00012 3.25007C7.10786 3.25007 7.21119 3.29287 7.28738 3.36905C7.36357 3.44524 7.40637 3.54857 7.40637 3.65632V8.36313L9.14999 6.61869C9.18776 6.58092 9.2326 6.55096 9.28195 6.53052C9.33131 6.51008 9.3842 6.49955 9.43762 6.49955C9.49103 6.49955 9.54393 6.51008 9.59328 6.53052C9.64263 6.55096 9.68747 6.58092 9.72524 6.61869C9.76301 6.65646 9.79297 6.7013 9.81342 6.75066C9.83386 6.80001 9.84438 6.8529 9.84438 6.90632C9.84438 6.95973 9.83386 7.01263 9.81342 7.06198C9.79297 7.11133 9.76301 7.15617 9.72524 7.19394L7.28774 9.63144C7.25 9.66927 7.20517 9.69929 7.15582 9.71977C7.10646 9.74025 7.05355 9.75079 7.00012 9.75079C6.94668 9.75079 6.89377 9.74025 6.84441 9.71977C6.79506 9.69929 6.75023 9.66927 6.71249 9.63144L4.27499 7.19394C4.19871 7.11766 4.15585 7.0142 4.15585 6.90632C4.15585 6.79844 4.19871 6.69498 4.27499 6.61869C4.35127 6.54241 4.45474 6.49955 4.56262 6.49955C4.6705 6.49955 4.77396 6.54241 4.85024 6.61869L6.59387 8.36313V3.65632C6.59387 3.54857 6.63667 3.44524 6.71285 3.36905C6.78904 3.29287 6.89237 3.25007 7.00012 3.25007Z" fill="#984C0C"/>
</g>
<defs>
<clipPath id="clip0_3025_1999">
<rect width="13" height="13" fill="white" transform="matrix(1 0 0 -1 0.5 13)"/>
</clipPath>
</defs>
</svg>
