<svg width="13" height="13" viewBox="0 0 13 13" fill="none" xmlns="http://www.w3.org/2000/svg">
<path fill-rule="evenodd" clip-rule="evenodd" d="M0.999919 0.021261C0.934526 0.000166672 0.865055 -0.0050732 0.797238 0.00597388C0.729484 0.0169925 0.665318 0.0439516 0.610025 0.0846301C0.554732 0.125309 0.509896 0.178543 0.47921 0.239946L0.0459278 1.10651C0.0157305 1.16676 4.51301e-06 1.23322 0 1.30062V11.6994C4.51301e-06 11.7668 0.0157305 11.8332 0.0459278 11.8935L0.47921 12.7601C0.5099 12.8215 0.554758 12.8748 0.610085 12.9155C0.665412 12.9562 0.729622 12.9831 0.797419 12.9941C0.865216 13.0051 0.934658 12.9999 1.00002 12.9788C1.06538 12.9576 1.12478 12.9213 1.17333 12.8727L1.73313 12.312L2.29293 12.8727C2.33317 12.9131 2.38099 12.9451 2.43363 12.9669C2.48627 12.9888 2.5427 13 2.59969 13C2.65668 13 2.71311 12.9888 2.76575 12.9669C2.81839 12.9451 2.86621 12.9131 2.90645 12.8727L3.46625 12.312L4.02605 12.8727C4.0663 12.9131 4.11411 12.9451 4.16675 12.9669C4.21939 12.9888 4.27583 13 4.33282 13C4.38981 13 4.44624 12.9888 4.49888 12.9669C4.55152 12.9451 4.59933 12.9131 4.63958 12.8727L5.19938 12.312L5.75918 12.8727C5.79943 12.9131 5.84724 12.9451 5.89988 12.9669C5.95252 12.9888 6.00895 13 6.06594 13C6.12294 13 6.17937 12.9888 6.23201 12.9669C6.28465 12.9451 6.33246 12.9131 6.37271 12.8727L6.93251 12.312L7.49231 12.8727C7.53256 12.9131 7.58037 12.9451 7.63301 12.9669C7.68565 12.9888 7.74208 13 7.79907 13C7.85606 13 7.91249 12.9888 7.96513 12.9669C8.01777 12.9451 8.06559 12.9131 8.10583 12.8727L8.66563 12.312L9.22543 12.8727C9.26568 12.9131 9.3135 12.9451 9.36614 12.9669C9.41877 12.9888 9.47521 13 9.5322 13C9.58919 13 9.64562 12.9888 9.69826 12.9669C9.7509 12.9451 9.79871 12.9131 9.83896 12.8727L10.3988 12.312L10.9594 12.8727C11.008 12.9211 11.0673 12.9573 11.1326 12.9783C11.1979 12.9993 11.2672 13.0045 11.3348 12.9935C11.4025 12.9825 11.4666 12.9556 11.5219 12.9151C11.5771 12.8745 11.622 12.8213 11.6527 12.7601L12.086 11.8935C12.1162 11.8332 12.1319 11.7668 12.1319 11.6994V1.30062C12.1319 1.23322 12.1162 1.16676 12.086 1.10651L11.6527 0.239946C11.622 0.1785 11.5771 0.12523 11.5218 0.0845306C11.4665 0.043831 11.4023 0.0168676 11.3345 0.00586432C11.2667 -0.00513895 11.1972 0.000133171 11.1319 0.0212458C11.0665 0.0423585 11.0071 0.0787068 10.9586 0.127293L10.3988 0.687959L9.83896 0.127293C9.79871 0.0869428 9.7509 0.0549295 9.69826 0.0330865C9.64562 0.0112435 9.58919 0 9.5322 0C9.47521 0 9.41877 0.0112435 9.36614 0.0330865C9.3135 0.0549295 9.26568 0.0869428 9.22543 0.127293L8.66563 0.687959L8.10583 0.127293C8.06559 0.0869428 8.01777 0.0549295 7.96513 0.0330865C7.91249 0.0112435 7.85606 0 7.79907 0C7.74208 0 7.68565 0.0112435 7.63301 0.0330865C7.58037 0.0549295 7.53256 0.0869428 7.49231 0.127293L6.93251 0.687959L6.37271 0.127293C6.33246 0.0869428 6.28465 0.0549295 6.23201 0.0330865C6.17937 0.0112435 6.12294 0 6.06594 0C6.00895 0 5.95252 0.0112435 5.89988 0.0330865C5.84724 0.0549295 5.79943 0.0869428 5.75918 0.127293L5.19938 0.687959L4.63958 0.127293C4.59933 0.0869428 4.55152 0.0549295 4.49888 0.0330865C4.44624 0.0112435 4.38981 0 4.33282 0C4.27583 0 4.21939 0.0112435 4.16675 0.0330865C4.11411 0.0549295 4.0663 0.0869428 4.02605 0.127293L3.46625 0.687959L2.90645 0.127293C2.86621 0.0869428 2.81839 0.0549295 2.76575 0.0330865C2.71311 0.0112435 2.65668 0 2.59969 0C2.5427 0 2.48627 0.0112435 2.43363 0.0330865C2.38099 0.0549295 2.33317 0.0869428 2.29293 0.127293L1.73313 0.687959L1.17333 0.127293C1.12475 0.0786992 1.06531 0.0423553 0.999919 0.021261ZM0.866563 1.40287L0.985283 1.16544L1.42636 1.60738C1.46661 1.64773 1.51442 1.67975 1.56706 1.70159C1.6197 1.72343 1.67614 1.73468 1.73313 1.73468C1.79012 1.73468 1.84655 1.72343 1.89919 1.70159C1.95183 1.67975 1.99964 1.64773 2.03989 1.60738L2.59969 1.04672L3.15949 1.60738C3.19974 1.64773 3.24755 1.67975 3.30019 1.70159C3.35283 1.72343 3.40926 1.73468 3.46625 1.73468C3.52325 1.73468 3.57968 1.72343 3.63232 1.70159C3.68496 1.67975 3.73277 1.64773 3.77302 1.60738L4.33282 1.04672L4.89262 1.60738C4.93287 1.64773 4.98068 1.67975 5.03332 1.70159C5.08596 1.72343 5.14239 1.73468 5.19938 1.73468C5.25637 1.73468 5.3128 1.72343 5.36544 1.70159C5.41808 1.67975 5.4659 1.64773 5.50614 1.60738L6.06594 1.04672L6.62574 1.60738C6.66599 1.64773 6.71381 1.67975 6.76645 1.70159C6.81908 1.72343 6.87552 1.73468 6.93251 1.73468C6.9895 1.73468 7.04593 1.72343 7.09857 1.70159C7.15121 1.67975 7.19902 1.64773 7.23927 1.60738L7.79907 1.04672L8.35887 1.60738C8.39912 1.64773 8.44693 1.67975 8.49957 1.70159C8.55221 1.72343 8.60864 1.73468 8.66563 1.73468C8.72263 1.73468 8.77906 1.72343 8.8317 1.70159C8.88434 1.67975 8.93215 1.64773 8.9724 1.60738L9.5322 1.04672L10.092 1.60738C10.1733 1.68861 10.2834 1.73424 10.3983 1.73424C10.5132 1.73424 10.6234 1.68861 10.7047 1.60738L11.1466 1.16544L11.2653 1.40287V11.5971L11.1466 11.8346L10.7055 11.3935C10.6653 11.3531 10.6175 11.3211 10.5648 11.2993C10.5122 11.2774 10.4558 11.2662 10.3988 11.2662C10.3418 11.2662 10.2853 11.2774 10.2327 11.2993C10.1801 11.3211 10.1322 11.3531 10.092 11.3935L9.5322 11.9533L8.9724 11.3935C8.93215 11.3531 8.88434 11.3211 8.8317 11.2993C8.77906 11.2774 8.72263 11.2662 8.66563 11.2662C8.60864 11.2662 8.55221 11.2774 8.49957 11.2993C8.44693 11.3211 8.39912 11.3531 8.35887 11.3935L7.79907 11.9533L7.23927 11.3935C7.19902 11.3531 7.15121 11.3211 7.09857 11.2993C7.04593 11.2774 6.9895 11.2662 6.93251 11.2662C6.87552 11.2662 6.81908 11.2774 6.76645 11.2993C6.71381 11.3211 6.66599 11.3531 6.62574 11.3935L6.06594 11.9533L5.50614 11.3935C5.4659 11.3531 5.41808 11.3211 5.36544 11.2993C5.3128 11.2774 5.25637 11.2662 5.19938 11.2662C5.14239 11.2662 5.08596 11.2774 5.03332 11.2993C4.98068 11.3211 4.93287 11.3531 4.89262 11.3935L4.33282 11.9533L3.77302 11.3935C3.73277 11.3531 3.68496 11.3211 3.63232 11.2993C3.57968 11.2774 3.52325 11.2662 3.46625 11.2662C3.40926 11.2662 3.35283 11.2774 3.30019 11.2993C3.24755 11.3211 3.19974 11.3531 3.15949 11.3935L2.59969 11.9533L2.03989 11.3926C1.95864 11.3114 1.84845 11.2658 1.73356 11.2658C1.61867 11.2658 1.50848 11.3114 1.42723 11.3926L0.985283 11.8346L0.866563 11.5971V1.40287ZM1.86004 3.16109C1.77879 3.24234 1.73314 3.35255 1.73314 3.46746C1.73314 3.58237 1.77879 3.69258 1.86004 3.77384C1.9413 3.85509 2.05151 3.90074 2.16642 3.90074H7.3658C7.48071 3.90074 7.59092 3.85509 7.67218 3.77384C7.75343 3.69258 7.79908 3.58237 7.79908 3.46746C7.79908 3.35255 7.75343 3.24234 7.67218 3.16109C7.59092 3.07983 7.48071 3.03418 7.3658 3.03418H2.16642C2.05151 3.03418 1.9413 3.07983 1.86004 3.16109ZM1.86004 4.89421C1.77879 4.97547 1.73314 5.08567 1.73314 5.20059C1.73314 5.3155 1.77879 5.42571 1.86004 5.50696C1.9413 5.58822 2.05151 5.63387 2.16642 5.63387H7.3658C7.48071 5.63387 7.59092 5.58822 7.67218 5.50696C7.75343 5.42571 7.79908 5.3155 7.79908 5.20059C7.79908 5.08567 7.75343 4.97547 7.67218 4.89421C7.59092 4.81296 7.48071 4.76731 7.3658 4.76731H2.16642C2.05151 4.76731 1.9413 4.81296 1.86004 4.89421ZM1.86004 6.62734C1.77879 6.70859 1.73314 6.8188 1.73314 6.93372C1.73314 7.04863 1.77879 7.15884 1.86004 7.24009C1.9413 7.32135 2.05151 7.367 2.16642 7.367H7.3658C7.48071 7.367 7.59092 7.32135 7.67218 7.24009C7.75343 7.15884 7.79908 7.04863 7.79908 6.93372C7.79908 6.8188 7.75343 6.70859 7.67218 6.62734C7.59092 6.54608 7.48071 6.50043 7.3658 6.50043H2.16642C2.05151 6.50043 1.9413 6.54608 1.86004 6.62734ZM1.86004 8.36047C1.77879 8.44172 1.73314 8.55193 1.73314 8.66684C1.73314 8.78176 1.77879 8.89196 1.86004 8.97322C1.9413 9.05447 2.05151 9.10012 2.16642 9.10012H7.3658C7.48071 9.10012 7.59092 9.05447 7.67218 8.97322C7.75343 8.89196 7.79908 8.78176 7.79908 8.66684C7.79908 8.55193 7.75343 8.44172 7.67218 8.36047C7.59092 8.27921 7.48071 8.23356 7.3658 8.23356H2.16642C2.05151 8.23356 1.9413 8.27921 1.86004 8.36047ZM8.79255 3.16109C8.71129 3.24234 8.66564 3.35255 8.66564 3.46746C8.66564 3.58237 8.71129 3.69258 8.79255 3.77384C8.87381 3.85509 8.98401 3.90074 9.09893 3.90074H9.96549C10.0804 3.90074 10.1906 3.85509 10.2719 3.77384C10.3531 3.69258 10.3988 3.58237 10.3988 3.46746C10.3988 3.35255 10.3531 3.24234 10.2719 3.16109C10.1906 3.07983 10.0804 3.03418 9.96549 3.03418H9.09893C8.98401 3.03418 8.87381 3.07983 8.79255 3.16109ZM8.79255 4.89421C8.71129 4.97547 8.66564 5.08567 8.66564 5.20059C8.66564 5.3155 8.71129 5.42571 8.79255 5.50696C8.87381 5.58822 8.98401 5.63387 9.09893 5.63387H9.96549C10.0804 5.63387 10.1906 5.58822 10.2719 5.50696C10.3531 5.42571 10.3988 5.3155 10.3988 5.20059C10.3988 5.08567 10.3531 4.97547 10.2719 4.89421C10.1906 4.81296 10.0804 4.76731 9.96549 4.76731H9.09893C8.98401 4.76731 8.87381 4.81296 8.79255 4.89421ZM8.79255 6.62734C8.71129 6.70859 8.66564 6.8188 8.66564 6.93372C8.66564 7.04863 8.71129 7.15884 8.79255 7.24009C8.87381 7.32135 8.98401 7.367 9.09893 7.367H9.96549C10.0804 7.367 10.1906 7.32135 10.2719 7.24009C10.3531 7.15884 10.3988 7.04863 10.3988 6.93372C10.3988 6.8188 10.3531 6.70859 10.2719 6.62734C10.1906 6.54608 10.0804 6.50043 9.96549 6.50043H9.09893C8.98401 6.50043 8.87381 6.54608 8.79255 6.62734ZM8.79255 8.36047C8.71129 8.44172 8.66564 8.55193 8.66564 8.66684C8.66564 8.78176 8.71129 8.89196 8.79255 8.97322C8.87381 9.05447 8.98401 9.10012 9.09893 9.10012H9.96549C10.0804 9.10012 10.1906 9.05447 10.2719 8.97322C10.3531 8.89196 10.3988 8.78176 10.3988 8.66684C10.3988 8.55193 10.3531 8.44172 10.2719 8.36047C10.1906 8.27921 10.0804 8.23356 9.96549 8.23356H9.09893C8.98401 8.23356 8.87381 8.27921 8.79255 8.36047Z" fill="#B42318"/>
</svg>
