<svg width="14" height="15" viewBox="0 0 14 15" fill="none" xmlns="http://www.w3.org/2000/svg">
<path fill-rule="evenodd" clip-rule="evenodd" d="M11.331 11.831C10.1824 12.9797 8.62445 13.625 7 13.625C5.37555 13.625 3.81763 12.9797 2.66897 11.831C1.52031 10.6824 0.875 9.12445 0.875 7.5C0.875 5.87555 1.52031 4.31763 2.66897 3.16897C3.81763 2.02031 5.37555 1.375 7 1.375C8.62445 1.375 10.1824 2.02031 11.331 3.16897C12.4797 4.31763 13.125 5.87555 13.125 7.5C13.125 9.12445 12.4797 10.6824 11.331 11.831ZM11.9497 12.4497C10.637 13.7625 8.85652 14.5 7 14.5C5.14348 14.5 3.36301 13.7625 2.05025 12.4497C0.737498 11.137 0 9.35652 0 7.5C0 5.64348 0.737498 3.86301 2.05025 2.55025C3.36301 1.2375 5.14348 0.5 7 0.5C8.85652 0.5 10.637 1.2375 11.9497 2.55025C13.2625 3.86301 14 5.64348 14 7.5C14 9.35652 13.2625 11.137 11.9497 12.4497ZM7.30936 4.12814C7.22731 4.04609 7.11603 4 7 4C6.88397 4 6.77269 4.04609 6.69064 4.12814C6.60859 4.21019 6.5625 4.32147 6.5625 4.4375V7.0625H3.9375C3.82147 7.0625 3.71019 7.10859 3.62814 7.19064C3.54609 7.27269 3.5 7.38397 3.5 7.5C3.5 7.61603 3.54609 7.72731 3.62814 7.80936C3.71019 7.89141 3.82147 7.9375 3.9375 7.9375H6.5625V10.5625C6.5625 10.6785 6.60859 10.7898 6.69064 10.8719C6.77269 10.9539 6.88397 11 7 11C7.11603 11 7.22731 10.9539 7.30936 10.8719C7.39141 10.7898 7.4375 10.6785 7.4375 10.5625V7.9375H10.0625C10.1785 7.9375 10.2898 7.89141 10.3719 7.80936C10.4539 7.72731 10.5 7.61603 10.5 7.5C10.5 7.38397 10.4539 7.27269 10.3719 7.19064C10.2898 7.10859 10.1785 7.0625 10.0625 7.0625H7.4375V4.4375C7.4375 4.32147 7.39141 4.21019 7.30936 4.12814Z" fill="#B42318"/>
</svg>
