<svg width="12" height="13" viewBox="0 0 12 13" fill="none" xmlns="http://www.w3.org/2000/svg">
<path fill-rule="evenodd" clip-rule="evenodd" d="M4.5 1.25H0.75V3.5H4.5V1.25ZM0.75 0.5C0.551088 0.5 0.360322 0.579018 0.21967 0.71967C0.0790176 0.860322 0 1.05109 0 1.25L0 3.5C0 3.69891 0.0790176 3.88968 0.21967 4.03033C0.360322 4.17098 0.551088 4.25 0.75 4.25H4.5C4.69891 4.25 4.88968 4.17098 5.03033 4.03033C5.17098 3.88968 5.25 3.69891 5.25 3.5V1.25C5.25 1.05109 5.17098 0.860322 5.03033 0.71967C4.88968 0.579018 4.69891 0.5 4.5 0.5H0.75ZM11.25 9.5H7.5V11.75H11.25V9.5ZM7.5 8.75C7.30109 8.75 7.11032 8.82902 6.96967 8.96967C6.82902 9.11032 6.75 9.30109 6.75 9.5V11.75C6.75 11.9489 6.82902 12.1397 6.96967 12.2803C7.11032 12.421 7.30109 12.5 7.5 12.5H11.25C11.4489 12.5 11.6397 12.421 11.7803 12.2803C11.921 12.1397 12 11.9489 12 11.75V9.5C12 9.30109 11.921 9.11032 11.7803 8.96967C11.6397 8.82902 11.4489 8.75 11.25 8.75H7.5ZM4.5 6.5H0.75V11.75H4.5V6.5ZM0.75 5.75C0.551088 5.75 0.360322 5.82902 0.21967 5.96967C0.0790176 6.11032 0 6.30109 0 6.5L0 11.75C0 11.9489 0.0790176 12.1397 0.21967 12.2803C0.360322 12.421 0.551088 12.5 0.75 12.5H4.5C4.69891 12.5 4.88968 12.421 5.03033 12.2803C5.17098 12.1397 5.25 11.9489 5.25 11.75V6.5C5.25 6.30109 5.17098 6.11032 5.03033 5.96967C4.88968 5.82902 4.69891 5.75 4.5 5.75H0.75ZM11.25 1.25H7.5V6.5H11.25V1.25ZM7.5 0.5C7.30109 0.5 7.11032 0.579018 6.96967 0.71967C6.82902 0.860322 6.75 1.05109 6.75 1.25V6.5C6.75 6.69891 6.82902 6.88968 6.96967 7.03033C7.11032 7.17098 7.30109 7.25 7.5 7.25H11.25C11.4489 7.25 11.6397 7.17098 11.7803 7.03033C11.921 6.88968 12 6.69891 12 6.5V1.25C12 1.05109 11.921 0.860322 11.7803 0.71967C11.6397 0.579018 11.4489 0.5 11.25 0.5H7.5Z" fill="#CC0000"/>
</svg>
