<svg width="15" height="16" viewBox="0 0 15 16" fill="none" xmlns="http://www.w3.org/2000/svg">
<path fill-rule="evenodd" clip-rule="evenodd" d="M13.702 3.95425C13.9021 3.75421 14.0144 3.4829 14.0144 3.2V2.13333C14.0144 1.85044 13.9021 1.57912 13.702 1.37909C13.502 1.17905 13.2307 1.06667 12.9478 1.06667H9.21443C9.21443 0.783769 9.10205 0.512458 8.90201 0.312419C8.70197 0.112381 8.43066 0 8.14777 0H6.01443C5.73154 0 5.46022 0.112381 5.26019 0.312419C5.06015 0.512458 4.94777 0.783769 4.94777 1.06667H1.21443C0.931535 1.06667 0.660224 1.17905 0.460185 1.37909C0.260147 1.57912 0.147766 1.85044 0.147766 2.13333V3.2C0.147766 3.4829 0.260147 3.75421 0.460185 3.95425C0.660224 4.15429 0.931535 4.26667 1.21443 4.26667H1.74777V13.8667C1.74777 14.4325 1.97253 14.9751 2.37261 15.3752C2.77268 15.7752 3.3153 16 3.8811 16H10.2811C10.8469 16 11.3895 15.7752 11.7896 15.3752C12.1897 14.9751 12.4144 14.4325 12.4144 13.8667V4.26667H12.9478C13.2307 4.26667 13.502 4.15429 13.702 3.95425ZM2.81443 4.3296L2.9403 4.26667H11.2219L11.3478 4.3296V13.8667C11.3478 14.1496 11.2354 14.4209 11.0353 14.6209C10.8353 14.821 10.564 14.9333 10.2811 14.9333H3.8811C3.5982 14.9333 3.32689 14.821 3.12685 14.6209C2.92681 14.4209 2.81443 14.1496 2.81443 13.8667V4.3296ZM1.21443 2.13333V3.2H12.9478V2.13333H1.21443ZM4.79182 6.02262C4.6918 5.9226 4.55614 5.86641 4.41469 5.86641C4.27324 5.86641 4.13759 5.9226 4.03757 6.02262C3.93755 6.12264 3.88136 6.25829 3.88136 6.39974V12.7997C3.88136 12.9412 3.93755 13.0768 4.03757 13.1769C4.13759 13.2769 4.27324 13.3331 4.41469 13.3331C4.55614 13.3331 4.6918 13.2769 4.79182 13.1769C4.89184 13.0768 4.94803 12.9412 4.94803 12.7997V6.39974C4.94803 6.25829 4.89184 6.12264 4.79182 6.02262ZM7.45848 6.02262C7.35846 5.9226 7.22281 5.86641 7.08136 5.86641C6.93991 5.86641 6.80426 5.9226 6.70424 6.02262C6.60422 6.12264 6.54803 6.25829 6.54803 6.39974V12.7997C6.54803 12.9412 6.60422 13.0768 6.70424 13.1769C6.80426 13.2769 6.93991 13.3331 7.08136 13.3331C7.22281 13.3331 7.35846 13.2769 7.45848 13.1769C7.5585 13.0768 7.61469 12.9412 7.61469 12.7997V6.39974C7.61469 6.25829 7.5585 6.12264 7.45848 6.02262ZM10.1252 6.02262C10.2252 6.12264 10.2814 6.25829 10.2814 6.39974V12.7997C10.2814 12.9412 10.2252 13.0768 10.1252 13.1769C10.0251 13.2769 9.88948 13.3331 9.74803 13.3331C9.60658 13.3331 9.47092 13.2769 9.3709 13.1769C9.27088 13.0768 9.21469 12.9412 9.21469 12.7997V6.39974C9.21469 6.25829 9.27088 6.12264 9.3709 6.02262C9.47092 5.9226 9.60658 5.86641 9.74803 5.86641C9.88948 5.86641 10.0251 5.9226 10.1252 6.02262Z" fill="#6C757D"/>
</svg>
