<svg width="17" height="17" viewBox="0 0 17 17" fill="none" xmlns="http://www.w3.org/2000/svg">
<path fill-rule="evenodd" clip-rule="evenodd" d="M3.5 10C3.10218 10 2.72064 9.84196 2.43934 9.56066C2.15804 9.27936 2 8.89782 2 8.5C2 8.10218 2.15804 7.72064 2.43934 7.43934C2.72064 7.15804 3.10218 7 3.5 7C3.89782 7 4.27936 7.15804 4.56066 7.43934C4.84196 7.72064 5 8.10218 5 8.5C5 8.89782 4.84196 9.27936 4.56066 9.56066C4.27936 9.84196 3.89782 10 3.5 10ZM8.5 10C8.10218 10 7.72064 9.84196 7.43934 9.56066C7.15804 9.27936 7 8.89782 7 8.5C7 8.10218 7.15804 7.72064 7.43934 7.43934C7.72064 7.15804 8.10218 7 8.5 7C8.89782 7 9.27936 7.15804 9.56066 7.43934C9.84196 7.72064 10 8.10218 10 8.5C10 8.89782 9.84196 9.27936 9.56066 9.56066C9.27936 9.84196 8.89782 10 8.5 10ZM13.5 10C13.1022 10 12.7206 9.84196 12.4393 9.56066C12.158 9.27936 12 8.89782 12 8.5C12 8.10218 12.158 7.72064 12.4393 7.43934C12.7206 7.15804 13.1022 7 13.5 7C13.8978 7 14.2794 7.15804 14.5607 7.43934C14.842 7.72064 15 8.10218 15 8.5C15 8.89782 14.842 9.27936 14.5607 9.56066C14.2794 9.84196 13.8978 10 13.5 10Z" fill="#6C757D"/>
</svg>
