<svg width="18" height="16" viewBox="0 0 18 16" fill="none" xmlns="http://www.w3.org/2000/svg">
<path fill-rule="evenodd" clip-rule="evenodd" d="M17.1477 1.97883C17.1477 1.83281 17.0898 1.69274 16.9867 1.58933V1.58822L15.56 0.16153C15.4566 0.0581025 15.3163 0 15.17 0C15.0237 0 14.8834 0.0581025 14.7799 0.16153L13.6291 1.31348L15.8359 3.52028L16.9867 2.36833C17.0898 2.26491 17.1477 2.12485 17.1477 1.97883ZM12.849 2.09248L15.0558 4.29927V4.30038L7.53833 11.8189C7.4775 11.8793 7.40345 11.9246 7.32206 11.9513L4.65846 12.8396C4.6099 12.8557 4.55782 12.858 4.50803 12.8462C4.45825 12.8344 4.41272 12.809 4.37655 12.7728C4.34037 12.7366 4.31497 12.6911 4.30318 12.6413C4.29139 12.5915 4.29367 12.5395 4.30978 12.4909L5.19802 9.8273C5.22508 9.74581 5.2708 9.67175 5.33153 9.61104L12.849 2.09248ZM1.47036 15.5152C1.15997 15.2048 0.985596 14.7838 0.985596 14.3448V2.20744C0.985596 1.76848 1.15997 1.3475 1.47036 1.03711C1.78075 0.72672 2.20173 0.552344 2.64069 0.552344H9.81279C9.95911 0.552344 10.0994 0.610469 10.2029 0.713933C10.3064 0.817396 10.3645 0.957723 10.3645 1.10404C10.3645 1.25036 10.3064 1.39069 10.2029 1.49415C10.0994 1.59762 9.95911 1.65574 9.81279 1.65574H2.64069C2.49437 1.65574 2.35405 1.71387 2.25058 1.81733C2.14712 1.9208 2.08899 2.06112 2.08899 2.20744V14.3448C2.08899 14.4911 2.14712 14.6315 2.25058 14.7349C2.35405 14.8384 2.49437 14.8965 2.64069 14.8965H14.7781C14.9244 14.8965 15.0647 14.8384 15.1682 14.7349C15.2717 14.6315 15.3298 14.4911 15.3298 14.3448V7.72444C15.3298 7.57812 15.3879 7.43779 15.4914 7.33433C15.5948 7.23086 15.7352 7.17274 15.8815 7.17274C16.0278 7.17274 16.1681 7.23086 16.2716 7.33433C16.3751 7.43779 16.4332 7.57812 16.4332 7.72444V14.3448C16.4332 14.7838 16.2588 15.2048 15.9484 15.5152C15.638 15.8256 15.217 15.9999 14.7781 15.9999H2.64069C2.20173 15.9999 1.78075 15.8256 1.47036 15.5152Z" fill="#6C757D"/>
</svg>
