<svg width="16" height="11" viewBox="0 0 16 11" fill="none" xmlns="http://www.w3.org/2000/svg">
<path fill-rule="evenodd" clip-rule="evenodd" d="M4.4 9.9C4.4 9.75413 4.45795 9.61424 4.56109 9.51109C4.66424 9.40795 4.80413 9.35 4.95 9.35H14.85C14.9959 9.35 15.1358 9.40795 15.2389 9.51109C15.3421 9.61424 15.4 9.75413 15.4 9.9C15.4 10.0459 15.3421 10.1858 15.2389 10.2889C15.1358 10.3921 14.9959 10.45 14.85 10.45H4.95C4.80413 10.45 4.66424 10.3921 4.56109 10.2889C4.45795 10.1858 4.4 10.0459 4.4 9.9ZM4.4 5.5C4.4 5.35413 4.45795 5.21424 4.56109 5.11109C4.66424 5.00795 4.80413 4.95 4.95 4.95H14.85C14.9959 4.95 15.1358 5.00795 15.2389 5.11109C15.3421 5.21424 15.4 5.35413 15.4 5.5C15.4 5.64587 15.3421 5.78576 15.2389 5.88891C15.1358 5.99205 14.9959 6.05 14.85 6.05H4.95C4.80413 6.05 4.66424 5.99205 4.56109 5.88891C4.45795 5.78576 4.4 5.64587 4.4 5.5ZM4.4 1.1C4.4 0.954131 4.45795 0.814236 4.56109 0.711091C4.66424 0.607946 4.80413 0.55 4.95 0.55H14.85C14.9959 0.55 15.1358 0.607946 15.2389 0.711091C15.3421 0.814236 15.4 0.954131 15.4 1.1C15.4 1.24587 15.3421 1.38576 15.2389 1.48891C15.1358 1.59205 14.9959 1.65 14.85 1.65H4.95C4.80413 1.65 4.66424 1.59205 4.56109 1.48891C4.45795 1.38576 4.4 1.24587 4.4 1.1ZM1.1 2.2C1.39174 2.2 1.67153 2.08411 1.87782 1.87782C2.08411 1.67153 2.2 1.39174 2.2 1.1C2.2 0.808262 2.08411 0.528472 1.87782 0.322183C1.67153 0.115892 1.39174 0 1.1 0C0.808262 0 0.528472 0.115892 0.322183 0.322183C0.115892 0.528472 0 0.808262 0 1.1C0 1.39174 0.115892 1.67153 0.322183 1.87782C0.528472 2.08411 0.808262 2.2 1.1 2.2ZM1.1 6.6C1.39174 6.6 1.67153 6.48411 1.87782 6.27782C2.08411 6.07153 2.2 5.79174 2.2 5.5C2.2 5.20826 2.08411 4.92847 1.87782 4.72218C1.67153 4.51589 1.39174 4.4 1.1 4.4C0.808262 4.4 0.528472 4.51589 0.322183 4.72218C0.115892 4.92847 0 5.20826 0 5.5C0 5.79174 0.115892 6.07153 0.322183 6.27782C0.528472 6.48411 0.808262 6.6 1.1 6.6ZM1.1 11C1.39174 11 1.67153 10.8841 1.87782 10.6778C2.08411 10.4715 2.2 10.1917 2.2 9.9C2.2 9.60826 2.08411 9.32847 1.87782 9.12218C1.67153 8.91589 1.39174 8.8 1.1 8.8C0.808262 8.8 0.528472 8.91589 0.322183 9.12218C0.115892 9.32847 0 9.60826 0 9.9C0 10.1917 0.115892 10.4715 0.322183 10.6778C0.528472 10.8841 0.808262 11 1.1 11Z" fill="#B42318"/>
</svg>
