<svg width="14" height="13" viewBox="0 0 14 13" fill="none" xmlns="http://www.w3.org/2000/svg">
<g clip-path="url(#clip0_3025_1964)">
<path fill-rule="evenodd" clip-rule="evenodd" d="M7.25 12.1875C8.75842 12.1875 10.2051 11.5883 11.2717 10.5217C12.3383 9.45506 12.9375 8.00842 12.9375 6.5C12.9375 4.99158 12.3383 3.54494 11.2717 2.47833C10.2051 1.41172 8.75842 0.8125 7.25 0.8125C5.74158 0.8125 4.29494 1.41172 3.22833 2.47833C2.16172 3.54494 1.5625 4.99158 1.5625 6.5C1.5625 8.00842 2.16172 9.45506 3.22833 10.5217C4.29494 11.5883 5.74158 12.1875 7.25 12.1875ZM7.25 13C8.97391 13 10.6272 12.3152 11.8462 11.0962C13.0652 9.87721 13.75 8.22391 13.75 6.5C13.75 4.77609 13.0652 3.12279 11.8462 1.90381C10.6272 0.68482 8.97391 0 7.25 0C5.52609 0 3.87279 0.68482 2.65381 1.90381C1.43482 3.12279 0.75 4.77609 0.75 6.5C0.75 8.22391 1.43482 9.87721 2.65381 11.0962C3.87279 12.3152 5.52609 13 7.25 13Z" fill="#B02A37"/>
<path fill-rule="evenodd" clip-rule="evenodd" d="M7.25011 9.74993C7.35786 9.74993 7.46119 9.70713 7.53737 9.63095C7.61356 9.55476 7.65636 9.45143 7.65636 9.34368V4.63687L9.39999 6.38131C9.43776 6.41908 9.4826 6.44904 9.53195 6.46948C9.5813 6.48992 9.63419 6.50045 9.68761 6.50045C9.74103 6.50045 9.79392 6.48992 9.84327 6.46948C9.89262 6.44904 9.93746 6.41908 9.97524 6.38131C10.013 6.34354 10.043 6.2987 10.0634 6.24934C10.0839 6.19999 10.0944 6.1471 10.0944 6.09368C10.0944 6.04027 10.0839 5.98737 10.0634 5.93802C10.043 5.88867 10.013 5.84383 9.97524 5.80606L7.53774 3.36856C7.5 3.33073 7.45517 3.30071 7.40581 3.28023C7.35646 3.25975 7.30355 3.24921 7.25011 3.24921C7.19668 3.24921 7.14376 3.25975 7.09441 3.28023C7.04505 3.30071 7.00022 3.33073 6.96249 3.36856L4.52499 5.80606C4.4487 5.88234 4.40585 5.9858 4.40585 6.09368C4.40585 6.20156 4.4487 6.30502 4.52499 6.38131C4.60127 6.45759 4.70473 6.50045 4.81261 6.50045C4.92049 6.50045 5.02395 6.45759 5.10024 6.38131L6.84386 4.63687V9.34368C6.84386 9.45143 6.88666 9.55476 6.96285 9.63095C7.03904 9.70713 7.14237 9.74993 7.25011 9.74993Z" fill="#B02A37"/>
</g>
<defs>
<clipPath id="clip0_3025_1964">
<rect width="13" height="13" fill="white" transform="translate(0.75)"/>
</clipPath>
</defs>
</svg>
