<svg width="16" height="13" viewBox="0 0 16 13" fill="none" xmlns="http://www.w3.org/2000/svg">
<path fill-rule="evenodd" clip-rule="evenodd" d="M15 12.5C15 12.5 16 12.5 16 11.5C16 10.5 15 7.5 11 7.5C7 7.5 6 10.5 6 11.5C6 12.5 7 12.5 7 12.5H15ZM7.022 11.5H14.978C14.9827 11.4995 14.9874 11.4988 14.992 11.498L15 11.496C14.998 11.232 14.833 10.466 14.24 9.776C13.688 9.129 12.718 8.5 11 8.5C9.283 8.5 8.313 9.13 7.76 9.776C7.167 10.466 7.001 11.233 7 11.496C7.00732 11.4974 7.01465 11.4987 7.022 11.5ZM11 5.5C11.5304 5.5 12.0391 5.28929 12.4142 4.91421C12.7893 4.53914 13 4.03043 13 3.5C13 2.96957 12.7893 2.46086 12.4142 2.08579C12.0391 1.71071 11.5304 1.5 11 1.5C10.4696 1.5 9.96086 1.71071 9.58579 2.08579C9.21071 2.46086 9 2.96957 9 3.5C9 4.03043 9.21071 4.53914 9.58579 4.91421C9.96086 5.28929 10.4696 5.5 11 5.5ZM14 3.5C14 3.89397 13.9224 4.28407 13.7716 4.64805C13.6209 5.01203 13.3999 5.34274 13.1213 5.62132C12.8427 5.8999 12.512 6.12087 12.1481 6.27164C11.7841 6.4224 11.394 6.5 11 6.5C10.606 6.5 10.2159 6.4224 9.85195 6.27164C9.48797 6.12087 9.15726 5.8999 8.87868 5.62132C8.6001 5.34274 8.37913 5.01203 8.22836 4.64805C8.0776 4.28407 8 3.89397 8 3.5C8 2.70435 8.31607 1.94129 8.87868 1.37868C9.44129 0.816071 10.2044 0.5 11 0.5C11.7956 0.5 12.5587 0.816071 13.1213 1.37868C13.6839 1.94129 14 2.70435 14 3.5ZM6.936 7.78C6.53598 7.65404 6.12364 7.57123 5.706 7.533C5.47133 7.51068 5.23573 7.49967 5 7.5C1 7.5 0 10.5 0 11.5C0 12.167 0.333 12.5 1 12.5H5.216C5.06776 12.1878 4.99382 11.8455 5 11.5C5 10.49 5.377 9.458 6.09 8.596C6.333 8.302 6.616 8.027 6.936 7.78ZM4.92 8.5C3.252 8.52 2.305 9.14 1.76 9.776C1.163 10.47 1 11.239 1 11.5H4C4 10.455 4.323 9.414 4.92 8.5ZM1.5 4C1.5 3.20435 1.81607 2.44129 2.37868 1.87868C2.94129 1.31607 3.70435 1 4.5 1C5.29565 1 6.05871 1.31607 6.62132 1.87868C7.18393 2.44129 7.5 3.20435 7.5 4C7.5 4.79565 7.18393 5.55871 6.62132 6.12132C6.05871 6.68393 5.29565 7 4.5 7C3.70435 7 2.94129 6.68393 2.37868 6.12132C1.81607 5.55871 1.5 4.79565 1.5 4ZM4.5 2C3.96957 2 3.46086 2.21071 3.08579 2.58579C2.71071 2.96086 2.5 3.46957 2.5 4C2.5 4.53043 2.71071 5.03914 3.08579 5.41421C3.46086 5.78929 3.96957 6 4.5 6C5.03043 6 5.53914 5.78929 5.91421 5.41421C6.28929 5.03914 6.5 4.53043 6.5 4C6.5 3.46957 6.28929 2.96086 5.91421 2.58579C5.53914 2.21071 5.03043 2 4.5 2Z" fill="#B42318"/>
</svg>
