<svg width="13" height="13" viewBox="0 0 13 13" fill="none" xmlns="http://www.w3.org/2000/svg">
<path fill-rule="evenodd" clip-rule="evenodd" d="M2.376 0.78C2.45111 0.692188 2.54435 0.621689 2.64931 0.573353C2.75426 0.525017 2.86845 0.499992 2.984 0.5H9.816C9.93155 0.499992 10.0457 0.525017 10.1507 0.573353C10.2557 0.621689 10.3489 0.692188 10.424 0.78L12.5112 3.2152C12.6976 3.43267 12.8 3.70961 12.8 3.996V4.2C12.8 4.59598 12.6764 4.98208 12.4463 5.30434C12.2161 5.62659 11.8911 5.8689 11.5165 5.9974C11.142 6.12589 10.7366 6.13415 10.3572 6.02102C9.97769 5.90788 9.64305 5.67902 9.4 5.3664C9.22251 5.59502 8.99506 5.77998 8.73507 5.90714C8.47507 6.03429 8.18942 6.10026 7.9 6.1C7.61057 6.10032 7.3249 6.03438 7.06489 5.90722C6.80489 5.78006 6.57745 5.59506 6.4 5.3664C6.22255 5.59506 5.99511 5.78006 5.73511 5.90722C5.4751 6.03438 5.18943 6.10032 4.9 6.1C4.61057 6.10032 4.3249 6.03438 4.06489 5.90722C3.80489 5.78006 3.57745 5.59506 3.4 5.3664C3.15695 5.67902 2.82231 5.90788 2.44283 6.02102C2.06335 6.13415 1.65801 6.12589 1.28346 5.9974C0.908906 5.8689 0.583858 5.62659 0.353746 5.30434C0.123633 4.98208 -4.36789e-05 4.59598 1.15716e-08 4.2V3.996C1.0086e-05 3.70961 0.102445 3.43267 0.2888 3.2152L2.3768 0.7792L2.376 0.78ZM3.8 4.2C3.8 4.49174 3.91589 4.77153 4.12218 4.97782C4.32847 5.18411 4.60826 5.3 4.9 5.3C5.19174 5.3 5.47153 5.18411 5.67782 4.97782C5.88411 4.77153 6 4.49174 6 4.2C6 4.09391 6.04214 3.99217 6.11716 3.91716C6.19217 3.84214 6.29391 3.8 6.4 3.8C6.50609 3.8 6.60783 3.84214 6.68284 3.91716C6.75786 3.99217 6.8 4.09391 6.8 4.2C6.8 4.49174 6.91589 4.77153 7.12218 4.97782C7.32847 5.18411 7.60826 5.3 7.9 5.3C8.19174 5.3 8.47153 5.18411 8.67782 4.97782C8.88411 4.77153 9 4.49174 9 4.2C9 4.09391 9.04214 3.99217 9.11716 3.91716C9.19217 3.84214 9.29391 3.8 9.4 3.8C9.50609 3.8 9.60783 3.84214 9.68284 3.91716C9.75786 3.99217 9.8 4.09391 9.8 4.2C9.8 4.49174 9.91589 4.77153 10.1222 4.97782C10.3285 5.18411 10.6083 5.3 10.9 5.3C11.1917 5.3 11.4715 5.18411 11.6778 4.97782C11.8841 4.77153 12 4.49174 12 4.2V3.996C12 3.90066 11.966 3.80846 11.904 3.736L9.816 1.3H2.984L0.896 3.736C0.834038 3.80846 0.799993 3.90066 0.8 3.996V4.2C0.8 4.49174 0.915893 4.77153 1.12218 4.97782C1.32847 5.18411 1.60826 5.3 1.9 5.3C2.19174 5.3 2.47153 5.18411 2.67782 4.97782C2.88411 4.77153 3 4.49174 3 4.2C3 4.09391 3.04214 3.99217 3.11716 3.91716C3.19217 3.84214 3.29391 3.8 3.4 3.8C3.50609 3.8 3.60783 3.84214 3.68284 3.91716C3.75786 3.99217 3.8 4.09391 3.8 4.2ZM1.2 6.5C1.30609 6.5 1.40783 6.54214 1.48284 6.61716C1.55786 6.69217 1.6 6.79391 1.6 6.9V11.7H11.2V6.9C11.2 6.79391 11.2421 6.69217 11.3172 6.61716C11.3922 6.54214 11.4939 6.5 11.6 6.5C11.7061 6.5 11.8078 6.54214 11.8828 6.61716C11.9579 6.69217 12 6.79391 12 6.9V11.7H12.4C12.5061 11.7 12.6078 11.7421 12.6828 11.8172C12.7579 11.8922 12.8 11.9939 12.8 12.1C12.8 12.2061 12.7579 12.3078 12.6828 12.3828C12.6078 12.4579 12.5061 12.5 12.4 12.5H0.4C0.293913 12.5 0.192172 12.4579 0.117157 12.3828C0.0421428 12.3078 1.15716e-08 12.2061 1.15716e-08 12.1C1.15716e-08 11.9939 0.0421428 11.8922 0.117157 11.8172C0.192172 11.7421 0.293913 11.7 0.4 11.7H0.8V6.9C0.8 6.79391 0.842143 6.69217 0.917157 6.61716C0.992172 6.54214 1.09391 6.5 1.2 6.5ZM2.8 6.9C2.90609 6.9 3.00783 6.94214 3.08284 7.01716C3.15786 7.09217 3.2 7.19391 3.2 7.3V10.1H9.6V7.3C9.6 7.19391 9.64214 7.09217 9.71716 7.01716C9.79217 6.94214 9.89391 6.9 10 6.9C10.1061 6.9 10.2078 6.94214 10.2828 7.01716C10.3579 7.09217 10.4 7.19391 10.4 7.3V10.1C10.4 10.3122 10.3157 10.5157 10.1657 10.6657C10.0157 10.8157 9.81217 10.9 9.6 10.9H3.2C2.98783 10.9 2.78434 10.8157 2.63431 10.6657C2.48429 10.5157 2.4 10.3122 2.4 10.1V7.3C2.4 7.19391 2.44214 7.09217 2.51716 7.01716C2.59217 6.94214 2.69391 6.9 2.8 6.9Z" fill="#B42318"/>
</svg>
