<svg width="14" height="15" viewBox="0 0 14 15" fill="none" xmlns="http://www.w3.org/2000/svg">
<path fill-rule="evenodd" clip-rule="evenodd" d="M6.26763 1.92241C6.4829 1.19174 7.51722 1.19174 7.73249 1.92241H7.73161L7.81387 2.20156C7.88299 2.43627 8.00378 2.65253 8.16738 2.83447C8.33098 3.01641 8.53324 3.15941 8.75932 3.25298C8.9854 3.34655 9.22956 3.38832 9.47389 3.37522C9.71822 3.36211 9.95651 3.29447 10.1713 3.17725L10.4259 3.03812C11.0954 2.67409 11.826 3.40564 11.4629 4.07419L11.3229 4.32971C11.206 4.54442 11.1386 4.78255 11.1257 5.02667C11.1127 5.27079 11.1546 5.51471 11.2481 5.74056C11.3417 5.96642 11.4846 6.16849 11.6663 6.33197C11.8481 6.49545 12.0641 6.6162 12.2986 6.68538L12.5777 6.76763C13.3084 6.9829 13.3084 8.01722 12.5777 8.23249L12.2994 8.31474C12.0648 8.38379 11.8485 8.50449 11.6666 8.66799C11.4846 8.83149 11.3416 9.03364 11.248 9.25962C11.1543 9.4856 11.1124 9.72967 11.1254 9.97395C11.1384 10.2182 11.2058 10.4565 11.3229 10.6713L11.462 10.9259C11.826 11.5954 11.0945 12.326 10.4259 11.9629L10.1713 11.8229C9.95655 11.7058 9.71833 11.6383 9.47411 11.6253C9.22989 11.6123 8.98585 11.6541 8.75988 11.7476C8.53391 11.8412 8.33175 11.9841 8.1682 12.166C8.00466 12.3478 7.88389 12.564 7.81474 12.7986L7.73249 13.0777C7.51722 13.8084 6.4829 13.8084 6.26763 13.0777L6.18538 12.7994C6.1163 12.5649 5.99562 12.3488 5.83218 12.1669C5.66874 11.9851 5.46669 11.8421 5.24082 11.7484C5.01496 11.6548 4.771 11.6129 4.52683 11.6258C4.28267 11.6386 4.04447 11.706 3.82971 11.8229L3.57419 11.962C2.90477 12.326 2.17409 11.5945 2.53724 10.9259L2.67725 10.6713C2.7943 10.4565 2.86181 10.2183 2.87483 9.97411C2.88785 9.72989 2.84605 9.48585 2.75249 9.25988C2.65893 9.03391 2.51599 8.83175 2.33414 8.6682C2.15229 8.50466 1.93615 8.38389 1.70156 8.31474L1.42241 8.23249C0.691737 8.01722 0.691737 6.9829 1.42241 6.76763L1.70156 6.68538C1.93603 6.6162 2.15205 6.49545 2.33381 6.33197C2.51557 6.16849 2.65845 5.96642 2.752 5.74056C2.84554 5.51471 2.88738 5.27079 2.87445 5.02667C2.86152 4.78255 2.79414 4.54442 2.67725 4.32971L2.53812 4.07419C2.17409 3.40477 2.90564 2.67409 3.57419 3.03724L3.82971 3.17725C4.04442 3.29414 4.28255 3.36152 4.52667 3.37445C4.77079 3.38738 5.01471 3.34554 5.24056 3.252C5.46642 3.15845 5.66849 3.01557 5.83197 2.83381C5.99545 2.65205 6.1162 2.43603 6.18538 2.20156L6.26763 1.92241ZM8.57167 1.67477C8.11052 0.10841 5.88961 0.10841 5.42845 1.67477L5.34619 1.95392C5.31399 2.06326 5.25772 2.16401 5.18152 2.24878C5.10532 2.33355 5.01111 2.40019 4.90581 2.44382C4.80051 2.48745 4.68677 2.50697 4.57295 2.50093C4.45912 2.4949 4.34809 2.46347 4.24799 2.40895L3.99247 2.26981C2.55824 1.48838 0.988383 3.05737 1.76894 4.49247L1.90895 4.74799C1.96347 4.84809 1.9949 4.95912 2.00093 5.07295C2.00697 5.18677 1.98745 5.30051 1.94382 5.40581C1.90019 5.51111 1.83355 5.60532 1.74878 5.68152C1.66401 5.75772 1.56326 5.81399 1.45392 5.84619L1.17477 5.92845C-0.39159 6.38961 -0.39159 8.61052 1.17477 9.07167L1.45392 9.15393C1.56326 9.18614 1.66401 9.2424 1.74878 9.3186C1.83355 9.3948 1.90019 9.48901 1.94382 9.59431C1.98745 9.69962 2.00697 9.81335 2.00093 9.92717C1.9949 10.041 1.96347 10.152 1.90895 10.2521L1.76981 10.5077C0.988383 11.9419 2.55737 13.5126 3.99247 12.7312L4.24799 12.5912C4.34809 12.5367 4.45912 12.5052 4.57295 12.4992C4.68677 12.4932 4.80051 12.5127 4.90581 12.5563C5.01111 12.5999 5.10532 12.6666 5.18152 12.7513C5.25772 12.8361 5.31399 12.9369 5.34619 13.0462L5.42845 13.3254C5.88961 14.8917 8.11052 14.8917 8.57167 13.3254L8.65393 13.0462C8.68614 12.9369 8.7424 12.8361 8.8186 12.7513C8.8948 12.6666 8.98901 12.5999 9.09431 12.5563C9.19962 12.5127 9.31335 12.4932 9.42717 12.4992C9.541 12.5052 9.65203 12.5367 9.75213 12.5912L10.0077 12.7303C11.4419 13.5126 13.0126 11.9428 12.2312 10.5077L12.0912 10.2521C12.0367 10.152 12.0052 10.041 11.9992 9.92717C11.9932 9.81335 12.0127 9.69962 12.0563 9.59431C12.0999 9.48901 12.1666 9.3948 12.2513 9.3186C12.3361 9.2424 12.4369 9.18614 12.5462 9.15393L12.8254 9.07167C14.3917 8.61052 14.3917 6.38961 12.8254 5.92845L12.5462 5.84619C12.4369 5.81399 12.3361 5.75772 12.2513 5.68152C12.1666 5.60532 12.0999 5.51111 12.0563 5.40581C12.0127 5.30051 11.9932 5.18677 11.9992 5.07295C12.0052 4.95912 12.0367 4.84809 12.0912 4.74799L12.2303 4.49247C13.0126 3.05737 11.4428 1.48838 10.0077 2.26894L9.75213 2.40895C9.65203 2.46347 9.541 2.4949 9.42717 2.50093C9.31335 2.50697 9.19962 2.48745 9.09431 2.44382C8.98901 2.40019 8.8948 2.33355 8.8186 2.24878C8.7424 2.16401 8.68614 2.06326 8.65393 1.95392L8.57167 1.67477ZM5.60381 6.10381C5.97239 5.73522 6.47229 5.52816 6.99355 5.52816C7.5148 5.52816 8.0147 5.73522 8.38329 6.10381C8.75187 6.47239 8.95894 6.97229 8.95894 7.49355C8.95894 8.0148 8.75187 8.51471 8.38329 8.88329C8.0147 9.25187 7.5148 9.45894 6.99355 9.45894C6.47229 9.45894 5.97239 9.25187 5.60381 8.88329C5.23522 8.51471 5.02816 8.0148 5.02816 7.49355C5.02816 6.97229 5.23522 6.47239 5.60381 6.10381ZM4.36931 6.40655C4.22657 6.75117 4.15309 7.12053 4.15309 7.49355C4.15309 8.24688 4.45236 8.96936 4.98504 9.50205C5.51773 10.0347 6.24021 10.334 6.99355 10.334C7.74688 10.334 8.46936 10.0347 9.00205 9.50205C9.53474 8.96936 9.834 8.24688 9.834 7.49355C9.834 7.12053 9.76053 6.75117 9.61778 6.40655C9.47504 6.06193 9.26581 5.7488 9.00205 5.48504C8.73829 5.22128 8.42516 5.01206 8.08054 4.86931C7.73592 4.72657 7.36656 4.65309 6.99355 4.65309C6.62053 4.65309 6.25117 4.72657 5.90655 4.86931C5.56193 5.01206 5.2488 5.22128 4.98504 5.48504C4.72128 5.7488 4.51206 6.06193 4.36931 6.40655Z" fill="#B42318"/>
</svg>
