<svg width="10" height="13" viewBox="0 0 10 13" fill="none" xmlns="http://www.w3.org/2000/svg">
<path fill-rule="evenodd" clip-rule="evenodd" d="M3 2C3 1.60218 3.15804 1.22064 3.43934 0.93934C3.72064 0.658035 4.10218 0.5 4.5 0.5H5.5C5.89782 0.5 6.27936 0.658035 6.56066 0.93934C6.84196 1.22064 7 1.60218 7 2V3C7 3.39782 6.84196 3.77936 6.56066 4.06066C6.27936 4.34196 5.89782 4.5 5.5 4.5V5.5H8C8.13261 5.5 8.25979 5.55268 8.35355 5.64645C8.44732 5.74021 8.5 5.86739 8.5 6V7C8.5 7.13261 8.44732 7.25979 8.35355 7.35355C8.25979 7.44732 8.13261 7.5 8 7.5C7.86739 7.5 7.74021 7.44732 7.64645 7.35355C7.55268 7.25979 7.5 7.13261 7.5 7V6.5H2.5V7C2.5 7.13261 2.44732 7.25979 2.35355 7.35355C2.25979 7.44732 2.13261 7.5 2 7.5C1.86739 7.5 1.74021 7.44732 1.64645 7.35355C1.55268 7.25979 1.5 7.13261 1.5 7V6C1.5 5.86739 1.55268 5.74021 1.64645 5.64645C1.74021 5.55268 1.86739 5.5 2 5.5H4.5V4.5C4.10218 4.5 3.72064 4.34196 3.43934 4.06066C3.15804 3.77936 3 3.39782 3 3V2ZM5.5 3.5C5.63261 3.5 5.75979 3.44732 5.85355 3.35355C5.94732 3.25979 6 3.13261 6 3V2C6 1.86739 5.94732 1.74021 5.85355 1.64645C5.75979 1.55268 5.63261 1.5 5.5 1.5H4.5C4.36739 1.5 4.24021 1.55268 4.14645 1.64645C4.05268 1.74021 4 1.86739 4 2V3C4 3.13261 4.05268 3.25979 4.14645 3.35355C4.24021 3.44732 4.36739 3.5 4.5 3.5H5.5ZM0 10C0 9.60218 0.158035 9.22064 0.43934 8.93934C0.720644 8.65804 1.10218 8.5 1.5 8.5H2.5C2.89782 8.5 3.27936 8.65804 3.56066 8.93934C3.84196 9.22064 4 9.60218 4 10V11C4 11.3978 3.84196 11.7794 3.56066 12.0607C3.27936 12.342 2.89782 12.5 2.5 12.5H1.5C1.10218 12.5 0.720644 12.342 0.43934 12.0607C0.158035 11.7794 0 11.3978 0 11V10ZM1.5 9.5C1.36739 9.5 1.24021 9.55268 1.14645 9.64645C1.05268 9.74021 1 9.86739 1 10V11C1 11.1326 1.05268 11.2598 1.14645 11.3536C1.24021 11.4473 1.36739 11.5 1.5 11.5H2.5C2.63261 11.5 2.75979 11.4473 2.85355 11.3536C2.94732 11.2598 3 11.1326 3 11V10C3 9.86739 2.94732 9.74021 2.85355 9.64645C2.75979 9.55268 2.63261 9.5 2.5 9.5H1.5ZM6 10C6 9.60218 6.15804 9.22064 6.43934 8.93934C6.72064 8.65804 7.10218 8.5 7.5 8.5H8.5C8.89782 8.5 9.27936 8.65804 9.56066 8.93934C9.84196 9.22064 10 9.60218 10 10V11C10 11.3978 9.84196 11.7794 9.56066 12.0607C9.27936 12.342 8.89782 12.5 8.5 12.5H7.5C7.10218 12.5 6.72064 12.342 6.43934 12.0607C6.15804 11.7794 6 11.3978 6 11V10ZM7.5 9.5C7.36739 9.5 7.24021 9.55268 7.14645 9.64645C7.05268 9.74021 7 9.86739 7 10V11C7 11.1326 7.05268 11.2598 7.14645 11.3536C7.24021 11.4473 7.36739 11.5 7.5 11.5H8.5C8.63261 11.5 8.75979 11.4473 8.85355 11.3536C8.94732 11.2598 9 11.1326 9 11V10C9 9.86739 8.94732 9.74021 8.85355 9.64645C8.75979 9.55268 8.63261 9.5 8.5 9.5H7.5Z" fill="#B42318"/>
</svg>
