<svg width="12" height="13" viewBox="0 0 12 13" fill="none" xmlns="http://www.w3.org/2000/svg">
<path fill-rule="evenodd" clip-rule="evenodd" d="M0 1.78571C0 1.44472 0.135459 1.1177 0.376577 0.876577C0.617695 0.635459 0.944722 0.5 1.28571 0.5H3.85714C4.19814 0.5 4.52516 0.635459 4.76628 0.876577C5.0074 1.1177 5.14286 1.44472 5.14286 1.78571V4.35714C5.14286 4.69814 5.0074 5.02516 4.76628 5.26628C4.52516 5.5074 4.19814 5.64286 3.85714 5.64286H1.28571C0.944722 5.64286 0.617695 5.5074 0.376577 5.26628C0.135459 5.02516 0 4.69814 0 4.35714V1.78571ZM1.28571 1.35714C1.17205 1.35714 1.06304 1.4023 0.982669 1.48267C0.902296 1.56304 0.857143 1.67205 0.857143 1.78571V4.35714C0.857143 4.47081 0.902296 4.57982 0.982669 4.66019C1.06304 4.74056 1.17205 4.78571 1.28571 4.78571H3.85714C3.97081 4.78571 4.07982 4.74056 4.16019 4.66019C4.24056 4.57982 4.28571 4.47081 4.28571 4.35714V1.78571C4.28571 1.67205 4.24056 1.56304 4.16019 1.48267C4.07982 1.4023 3.97081 1.35714 3.85714 1.35714H1.28571ZM6.85714 1.78571C6.85714 1.44472 6.9926 1.1177 7.23372 0.876577C7.47484 0.635459 7.80186 0.5 8.14286 0.5H10.7143C11.0553 0.5 11.3823 0.635459 11.6234 0.876577C11.8645 1.1177 12 1.44472 12 1.78571V4.35714C12 4.69814 11.8645 5.02516 11.6234 5.26628C11.3823 5.5074 11.0553 5.64286 10.7143 5.64286H8.14286C7.80186 5.64286 7.47484 5.5074 7.23372 5.26628C6.9926 5.02516 6.85714 4.69814 6.85714 4.35714V1.78571ZM8.14286 1.35714C8.02919 1.35714 7.92018 1.4023 7.83981 1.48267C7.75944 1.56304 7.71429 1.67205 7.71429 1.78571V4.35714C7.71429 4.47081 7.75944 4.57982 7.83981 4.66019C7.92018 4.74056 8.02919 4.78571 8.14286 4.78571H10.7143C10.828 4.78571 10.937 4.74056 11.0173 4.66019C11.0977 4.57982 11.1429 4.47081 11.1429 4.35714V1.78571C11.1429 1.67205 11.0977 1.56304 11.0173 1.48267C10.937 1.4023 10.828 1.35714 10.7143 1.35714H8.14286ZM0 8.64286C0 8.30186 0.135459 7.97484 0.376577 7.73372C0.617695 7.4926 0.944722 7.35714 1.28571 7.35714H3.85714C4.19814 7.35714 4.52516 7.4926 4.76628 7.73372C5.0074 7.97484 5.14286 8.30186 5.14286 8.64286V11.2143C5.14286 11.5553 5.0074 11.8823 4.76628 12.1234C4.52516 12.3645 4.19814 12.5 3.85714 12.5H1.28571C0.944722 12.5 0.617695 12.3645 0.376577 12.1234C0.135459 11.8823 0 11.5553 0 11.2143V8.64286ZM1.28571 8.21429C1.17205 8.21429 1.06304 8.25944 0.982669 8.33981C0.902296 8.42018 0.857143 8.52919 0.857143 8.64286V11.2143C0.857143 11.328 0.902296 11.437 0.982669 11.5173C1.06304 11.5977 1.17205 11.6429 1.28571 11.6429H3.85714C3.97081 11.6429 4.07982 11.5977 4.16019 11.5173C4.24056 11.437 4.28571 11.328 4.28571 11.2143V8.64286C4.28571 8.52919 4.24056 8.42018 4.16019 8.33981C4.07982 8.25944 3.97081 8.21429 3.85714 8.21429H1.28571ZM6.85714 8.64286C6.85714 8.30186 6.9926 7.97484 7.23372 7.73372C7.47484 7.4926 7.80186 7.35714 8.14286 7.35714H10.7143C11.0553 7.35714 11.3823 7.4926 11.6234 7.73372C11.8645 7.97484 12 8.30186 12 8.64286V11.2143C12 11.5553 11.8645 11.8823 11.6234 12.1234C11.3823 12.3645 11.0553 12.5 10.7143 12.5H8.14286C7.80186 12.5 7.47484 12.3645 7.23372 12.1234C6.9926 11.8823 6.85714 11.5553 6.85714 11.2143V8.64286ZM8.14286 8.21429C8.02919 8.21429 7.92018 8.25944 7.83981 8.33981C7.75944 8.42018 7.71429 8.52919 7.71429 8.64286V11.2143C7.71429 11.328 7.75944 11.437 7.83981 11.5173C7.92018 11.5977 8.02919 11.6429 8.14286 11.6429H10.7143C10.828 11.6429 10.937 11.5977 11.0173 11.5173C11.0977 11.437 11.1429 11.328 11.1429 11.2143V8.64286C11.1429 8.52919 11.0977 8.42018 11.0173 8.33981C10.937 8.25944 10.828 8.21429 10.7143 8.21429H8.14286Z" fill="#B42318"/>
</svg>
